<svg version="1.1" xmlns="http://www.w3.org/2000/svg" style="display: block;" viewBox="468 32 1112 1050.667" width="1112" height="1050.667" preserveAspectRatio="none">
<defs>
	<linearGradient id="Gradient1" gradientUnits="userSpaceOnUse" x1="923.812" y1="526.122" x2="952.944" y2="422.319">
		<stop class="stop0" offset="0" stop-opacity="1" stop-color="rgb(3,113,193)"/>
		<stop class="stop1" offset="1" stop-opacity="1" stop-color="rgb(5,136,211)"/>
	</linearGradient>
	<linearGradient id="Gradient2" gradientUnits="userSpaceOnUse" x1="1108.9" y1="526.509" x2="1097.83" y2="428.072">
		<stop class="stop0" offset="0" stop-opacity="1" stop-color="rgb(6,113,189)"/>
		<stop class="stop1" offset="1" stop-opacity="1" stop-color="rgb(4,137,212)"/>
	</linearGradient>
	<linearGradient id="Gradient3" gradientUnits="userSpaceOnUse" x1="829.524" y1="516.437" x2="806.077" y2="200.656">
		<stop class="stop0" offset="0" stop-opacity="1" stop-color="rgb(3,121,200)"/>
		<stop class="stop1" offset="1" stop-opacity="1" stop-color="rgb(11,190,251)"/>
	</linearGradient>
	<linearGradient id="Gradient4" gradientUnits="userSpaceOnUse" x1="1215.09" y1="509.242" x2="1227.44" y2="193.671">
		<stop class="stop0" offset="0" stop-opacity="1" stop-color="rgb(4,125,202)"/>
		<stop class="stop1" offset="1" stop-opacity="1" stop-color="rgb(11,190,251)"/>
	</linearGradient>
	<linearGradient id="Gradient5" gradientUnits="userSpaceOnUse" x1="1195.85" y1="942.11" x2="1236.02" y2="564.999">
		<stop class="stop0" offset="0" stop-opacity="1" stop-color="rgb(2,65,146)"/>
		<stop class="stop1" offset="1" stop-opacity="1" stop-color="rgb(3,89,167)"/>
	</linearGradient>
	<linearGradient id="Gradient6" gradientUnits="userSpaceOnUse" x1="1020.81" y1="1017" x2="1019.24" y2="459.008">
		<stop class="stop0" offset="0" stop-opacity="1" stop-color="rgb(2,57,139)"/>
		<stop class="stop1" offset="1" stop-opacity="1" stop-color="rgb(3,105,183)"/>
	</linearGradient>
</defs>
<path transform="translate(0,0)" fill="url(#Gradient6)" d="M 1022.88 53.8356 C 1027.55 73.1453 1029.08 102.504 1031.63 122.905 C 1032.87 132.863 1036.31 162.728 1036.07 171.514 L 1036.27 172.62 C 1037.94 181.894 1037.62 198.685 1037.62 208.513 L 1037.59 261.888 L 1037.51 448.748 C 1037.42 471.405 1036.11 495.866 1037.88 518.259 C 1039.05 533.117 1054.41 540.556 1067.65 540.032 C 1093.68 539.873 1119.6 537.74 1145.65 537.596 L 1265.32 537.963 C 1346.39 537.867 1425.54 536.647 1506.04 546.635 C 1511.66 547.332 1517.4 547.739 1523.04 548.402 C 1521.7 551.7 1521.78 553.69 1519.02 555.902 C 1475.34 561.297 1429.68 565.25 1385.7 566.135 C 1366.39 566.524 1346.96 566.598 1327.64 566.707 L 1166.67 566.949 C 1145.83 567.124 1124.99 566.781 1104.17 565.919 C 1085.95 565.266 1040.13 558.135 1037.2 585.835 C 1034.1 615.177 1037 648.037 1037.28 677.796 L 1038.08 842.727 C 1037.95 880.285 1038.92 918.692 1035.61 956.059 C 1034.4 969.778 1032.86 983.859 1031.15 997.529 C 1029.46 997.434 1028.21 997.639 1026.55 997.834 C 1024.39 1001.77 1025.08 1010.08 1025.02 1015 C 1023.79 1015.61 1023.14 1016.42 1022.18 1017.4 C 1022.05 1014.59 1021.27 989.656 1020.98 988.449 C 1018.5 986.444 1017.91 986.408 1014.75 985.782 C 1012.34 963.889 1009.21 943.541 1008.72 921.372 C 1008.15 895.918 1009.48 870.471 1009.37 845.051 L 1009.55 663.188 C 1009.59 640.73 1010.33 618.225 1010.53 595.792 C 1010.56 572.327 995.299 563.714 973.743 564.791 C 941.11 566.421 908.525 566.944 875.903 566.997 L 709.813 566.638 C 680.336 566.384 647.796 567.258 618.624 564.624 C 588.089 561.866 556.562 559.635 526.203 555.917 C 523.963 554.884 522.983 554.581 521.142 552.986 L 521.543 551.422 L 520.986 552.001 L 522.066 553.555 L 521.614 551.173 L 521.204 551.32 C 523.456 549.6 524.617 549.162 527.156 547.983 C 533.175 547.301 539.279 546.74 545.288 546.01 C 608.538 538.324 670.503 538.146 734.136 537.938 L 886.205 537.882 C 917.069 538.121 947.894 539.786 978.783 539.99 C 1015.41 540.436 1011.64 505.298 1009.8 479.205 C 1007.34 444.215 1009.14 410.045 1009.36 375.134 C 1009.6 335.654 1007.03 295.495 1008.8 255.96 C 1009.87 232.047 1006.39 202.858 1009.94 179.779 C 1009.62 171.894 1013.15 144.391 1014.2 135.123 C 1017.33 108.053 1020.22 80.9561 1022.88 53.8356 z"/>
<path transform="translate(0,0)" fill="rgb(7,160,229)" d="M 1022.88 53.8356 C 1027.55 73.1453 1029.08 102.504 1031.63 122.905 C 1032.87 132.863 1036.31 162.728 1036.07 171.514 C 1034.49 186.993 1035.53 224.198 1035.54 241.133 C 1035.73 287.16 1035.59 333.187 1035.12 379.212 C 1034.92 395.358 1035.71 416.116 1033.22 431.727 C 1031.98 439.46 1035.08 454.647 1033.39 461.856 C 1025.65 463.049 1024.95 456.474 1013.64 459.679 C 1012.36 448.073 1013.11 432.787 1012.57 420.588 C 1010.09 364.126 1011.07 306.538 1010.48 250.021 C 1010.34 236.902 1011.53 190.488 1009.94 179.779 C 1009.62 171.894 1013.15 144.391 1014.2 135.123 C 1017.33 108.053 1020.22 80.9561 1022.88 53.8356 z"/>
<path transform="translate(0,0)" fill="rgb(2,76,155)" d="M 635.431 579.757 L 666.357 580.068 C 716.621 637.77 759.755 729.342 755.94 806.702 C 779.608 784.435 804.884 758.921 827.652 735.688 C 827.523 727.728 827.59 713.459 826.379 706.042 C 818.682 658.933 798.425 617.891 769.599 580.671 L 796.427 581.018 C 822.648 612.727 849.1 672.594 848.785 714.604 L 895.364 668.348 C 898.901 664.811 913.822 650.77 915.151 647.767 C 924.31 627.08 902.638 596.263 892.929 580.927 L 918.721 581.174 C 931.986 599.026 936.771 615.22 939.994 637.009 C 963.428 641.045 975.69 644.818 996.995 656.346 C 997.175 665.263 997.691 676.196 997.446 684.959 C 976.028 668.241 959.189 659.272 931.14 659.562 C 917.697 672.054 872.291 714.483 863.752 727.548 C 912.032 726.094 957.906 752.427 997.289 776.642 C 997.363 785.437 997.707 795.932 997.189 804.573 C 954.711 773.058 897.886 742.616 843.237 748.143 C 818.74 770.679 795.276 795.698 771.85 819.301 C 848.144 818.073 898.754 836.56 963.226 877.312 C 974.909 884.696 986.271 896.194 996.666 902.996 C 997.157 913.425 997.409 922.593 997.321 933.024 C 981.215 920.45 964.937 906.036 947.515 895.508 C 885.714 858.163 789.867 818.473 722.268 860.856 C 719.277 858.865 719.858 856.851 718.932 852.243 C 740.207 813.841 735.947 780.804 724.401 739.526 C 710.974 691.528 686.045 644.934 657.019 604.394 C 649.879 594.421 642.364 588.175 635.431 579.757 z"/>
<path transform="translate(0,0)" fill="url(#Gradient5)" d="M 1381.91 580.275 L 1414.09 580.197 C 1380.84 608.639 1348 672.382 1332.63 713.289 C 1314.75 760.882 1306.97 801.734 1328.49 848.873 C 1328.55 853.642 1329.46 854.517 1327.11 857.36 L 1322.69 858.189 C 1309.25 848.223 1281.32 842.3 1264.78 842.056 C 1192.68 840.992 1101.65 885.437 1049.98 934.07 C 1050.1 923.425 1050.68 914.3 1051.48 903.744 C 1052.39 902.755 1053.66 901.414 1054.69 900.508 C 1099.19 861.215 1160.91 832.104 1219.42 822.016 C 1239.22 818.603 1256.92 818.67 1276.26 819.217 C 1266.37 809.968 1256.83 798.563 1247.1 788.946 C 1233.08 775.086 1218.72 761.679 1205.02 747.503 C 1151.96 743.654 1089.03 772.472 1050.22 807.34 C 1051.24 798.693 1051.38 786.993 1051.73 778.076 C 1092.04 746.04 1134.48 731.237 1185.01 726.411 C 1167.9 709.61 1136.75 675.035 1117.1 661.307 C 1109.39 655.922 1077.08 664.95 1068.61 671.254 C 1065.89 673.282 1053.44 682.289 1050.46 682.137 C 1050.81 673.825 1051.22 665.515 1051.67 657.208 C 1068.35 645.243 1087.03 640.703 1106.83 637.215 C 1108.84 632.435 1111.49 621.29 1113.29 615.614 C 1117.75 601.527 1122.16 593.133 1129.57 580.593 L 1155.93 580.98 C 1138.93 603.584 1132.01 617.48 1131.41 645.601 C 1146.11 664.142 1180.58 695.862 1198.78 714.47 C 1203.72 663.109 1222.46 621.912 1252.71 580.797 C 1261.22 580.471 1271.37 580.82 1280 580.909 C 1271.86 592.936 1262.55 604.04 1254.56 616.634 C 1232.32 651.923 1220.33 692.702 1219.93 734.414 C 1222.44 737.517 1225.43 740.26 1228.22 743.126 C 1249.25 764.807 1271.11 785.596 1292.63 806.782 C 1292.1 753.857 1307.51 708.172 1330.05 660.84 C 1344.56 630.353 1361.61 606.936 1381.91 580.275 z"/>
<path transform="translate(0,0)" fill="url(#Gradient4)" d="M 1051.74 178.113 C 1118.13 229.41 1247.97 295.252 1328.71 245.16 C 1333.93 249.748 1330.36 250.023 1330.25 256.156 C 1327.5 262.793 1322.45 274.367 1320.99 281.016 C 1311.59 323.96 1326.55 370.117 1342.06 409.62 C 1355.44 443.653 1367.58 464.384 1387.51 494.127 C 1395.08 504.415 1404.81 515.86 1413.06 525.731 L 1383.84 525.548 C 1378.86 520.656 1375.42 516.9 1370.87 511.6 C 1366.58 505.889 1363.03 501.202 1359.28 495.105 C 1354.28 489.836 1347.56 476.087 1343.66 469.575 C 1318.72 427.961 1303.24 379.379 1296.66 331.432 C 1295.44 322.538 1295.6 306.064 1295.54 296.52 C 1276.21 319.975 1243.43 347.097 1222.45 371.259 C 1220.99 417.007 1238.51 466.883 1264.47 504.047 L 1279.95 525.314 L 1252.43 524.819 C 1245.22 517.016 1240.21 509.088 1235.35 499.73 C 1234.09 498.19 1229.77 489.789 1228.55 487.477 C 1211.69 455.517 1205.57 426.793 1200.17 391.845 C 1186.42 406.104 1168.43 423.041 1154.01 437.25 C 1148.36 437.255 1142.31 441.592 1137.19 438.261 C 1134.85 435.038 1135.56 435.424 1135.23 430.88 C 1150.96 415.246 1169.4 397.31 1184.26 381.137 C 1131.32 375.271 1095.42 359.153 1051.03 329.755 C 1051.13 320.468 1051.15 311.181 1051.09 301.894 C 1097.97 334.939 1147.38 363.34 1207.13 358.499 C 1213.88 352.708 1224.43 341.569 1230.99 335.047 L 1280 285.806 C 1210.9 288.14 1154.33 270.089 1094.62 235.39 C 1081.46 227.743 1062.35 214.785 1051.42 204.86 C 1051.25 195.387 1051.27 187.564 1051.74 178.113 z"/>
<path transform="translate(0,0)" fill="rgb(5,113,188)" d="M 1359.28 495.105 C 1360.69 495.547 1362.12 495.96 1363.56 496.344 C 1366.52 497.136 1372.58 493.602 1378.12 493.772 C 1376.72 497.333 1374.64 496.84 1374.73 499.198 L 1374.81 501.327 C 1374.93 504.19 1374.59 505.175 1373.86 507.957 L 1375.79 512.102 L 1377.91 512.434 C 1387.37 509.089 1388.07 502.612 1387.51 494.127 C 1395.08 504.415 1404.81 515.86 1413.06 525.731 L 1383.84 525.548 C 1378.86 520.656 1375.42 516.9 1370.87 511.6 C 1366.58 505.889 1363.03 501.202 1359.28 495.105 z"/>
<path transform="translate(0,0)" fill="rgb(5,113,188)" d="M 1235.35 499.73 C 1243.49 502.913 1256.39 513.367 1264.22 510.389 C 1264.88 507.707 1264.67 506.856 1264.47 504.047 L 1279.95 525.314 L 1252.43 524.819 C 1245.22 517.016 1240.21 509.088 1235.35 499.73 z"/>
<path transform="translate(0,0)" fill="url(#Gradient3)" d="M 721.186 245.558 C 763.709 269.686 803.994 266.679 850.49 253.82 C 891.114 242.233 929.713 224.462 964.929 201.13 C 975.931 193.816 985.454 186.046 995.991 178.645 L 995.739 206.108 C 935.603 257.004 849.48 289.63 770.357 285.737 C 785.33 302.756 799.713 316.975 816.023 332.81 C 822.222 338.828 836.589 352.245 841.383 358.547 C 893.591 363.164 957.173 335.255 996.441 302.467 C 996.052 310.601 995.319 320.598 995.709 328.57 C 959.543 359.853 910.599 374.903 864.093 381.568 C 867.927 385.491 871.782 389.394 875.656 393.277 C 873.585 400.704 864.794 401.735 858.091 400.624 L 848.649 391.425 C 845.792 430.808 827.113 487.679 801.782 518.1 C 801.216 518.986 799.268 521.901 798.643 522.473 C 794.106 526.622 776.298 525.004 769.767 524.957 C 773.37 519.828 777.52 514.42 781.267 509.339 C 808.313 474.388 829.461 417.335 827.624 372.675 C 820.581 363.893 808.429 352.089 800.233 343.737 C 785.141 328.306 769.966 312.958 754.708 297.692 C 755.547 372.784 726.526 443.7 682.794 503.932 C 677.555 511.149 672.452 518.226 667.399 525.583 C 657.032 525.329 646.044 525.548 635.629 525.585 C 671.227 490.654 700.801 433.152 716.992 385.912 C 726.994 356.729 736.667 310.45 728.38 279.81 C 725.891 270.604 720.886 260.662 716.62 252.104 C 716.462 249.695 715.635 247.528 714.917 245.207 L 715.682 244.246 L 721.186 245.558 z"/>
<path transform="translate(0,0)" fill="rgb(5,113,188)" d="M 781.267 509.339 C 781.4 513.303 780.818 515.264 784.182 518.241 C 789.853 523.26 797.627 518.3 801.782 518.1 C 801.216 518.986 799.268 521.901 798.643 522.473 C 794.106 526.622 776.298 525.004 769.767 524.957 C 773.37 519.828 777.52 514.42 781.267 509.339 z"/>
<path transform="translate(0,0)" fill="url(#Gradient2)" d="M 1049.9 421.901 C 1068.03 435.047 1085.3 446.978 1109.23 448.173 C 1119.97 448.71 1127.61 438.551 1135.23 430.88 C 1135.56 435.424 1134.85 435.038 1137.19 438.261 C 1142.31 441.592 1148.36 437.255 1154.01 437.25 C 1148.44 443.847 1137.46 454.49 1131.15 461.291 C 1133.48 489.886 1138.14 502.786 1156.86 524.668 L 1129.16 525.262 C 1117.69 508.266 1113.23 494.103 1108.6 474.214 C 1107.75 470.532 1101.2 468.918 1097.82 468.236 C 1080.08 464.658 1066.73 459.452 1051.75 449.388 C 1050.72 439.522 1050.19 431.814 1049.9 421.901 z"/>
<path transform="translate(0,0)" fill="url(#Gradient1)" d="M 929.38 447.782 C 956.033 448.894 975.674 439.736 996.776 424.363 C 996.948 432.68 996.819 441.001 996.39 449.309 C 979.279 462.325 960.488 466.55 939.555 469.644 C 934.946 494.544 931.17 503.088 919.188 525.321 C 910.072 524.498 903.426 524.472 894.237 524.548 C 907.469 502.978 919.055 486.982 917.666 460.1 C 911.017 453.813 901.912 445.144 895.929 438.268 C 902.708 439.897 910.696 439.377 913.715 432.35 C 919.056 437.911 923.614 442.659 929.38 447.782 z"/>
<path transform="translate(0,0)" fill="rgb(7,160,229)" d="M 875.656 393.277 C 888.804 406.223 900.919 419.133 913.715 432.35 C 910.696 439.377 902.708 439.897 895.929 438.268 C 882.907 426.139 870.287 413.584 858.091 400.624 C 864.794 401.735 873.585 400.704 875.656 393.277 z"/>
<path transform="translate(0,0)" fill="rgb(2,76,155)" fill-opacity="0.964706" d="M 1014.75 985.782 C 1017.91 986.408 1018.5 986.444 1020.98 988.449 C 1021.27 989.656 1022.05 1014.59 1022.18 1017.4 C 1023.14 1016.42 1023.79 1015.61 1025.02 1015 C 1025.08 1010.08 1024.39 1001.77 1026.55 997.834 C 1028.21 997.639 1029.46 997.434 1031.15 997.529 C 1028.38 1017.17 1028.7 1042.97 1022.62 1061.38 C 1021.57 1040.59 1017.12 1007.16 1014.75 985.782 z"/>
<path transform="translate(0,0)" fill="rgb(2,76,155)" fill-opacity="0.960784" d="M 489.307 551.827 C 501.155 550.148 515.283 548.795 527.156 547.983 C 524.617 549.162 523.456 549.6 521.204 551.32 L 521.614 551.173 L 522.066 553.555 L 520.986 552.001 L 521.543 551.422 L 521.142 552.986 C 522.983 554.581 523.963 554.884 526.203 555.917 C 516.869 555.826 498.3 553.268 489.307 551.827 z"/>
<path transform="translate(0,0)" fill="rgb(2,76,155)" fill-opacity="0.921569" d="M 1328.49 848.873 C 1333.13 856.944 1338.26 864.133 1342.58 871.571 C 1335.93 867.149 1329.3 862.688 1322.69 858.189 L 1327.11 857.36 C 1329.46 854.517 1328.55 853.642 1328.49 848.873 z"/>
<path transform="translate(0,0)" fill="rgb(2,76,155)" fill-opacity="0.792157" d="M 1528.37 548.993 C 1537.88 549.259 1548.88 550.448 1558.31 551.874 C 1546.87 553.769 1532.39 555.531 1520.78 555.779 C 1526.18 553.938 1531.37 553.643 1537.01 553.074 L 1535.94 551.298 L 1538.45 552.604 L 1538.26 551.979 C 1534.51 550.546 1532.26 549.958 1528.37 548.993 z"/>
<path transform="translate(0,0)" fill="rgb(2,76,155)" fill-opacity="0.92549" d="M 718.932 852.243 C 719.858 856.851 719.277 858.865 722.268 860.856 C 720.709 862.685 708.8 870.044 706.167 871.693 L 718.932 852.243 z"/>
<path transform="translate(0,0)" fill="rgb(5,113,188)" d="M 1523.04 548.402 L 1528.37 548.993 C 1532.26 549.958 1534.51 550.546 1538.26 551.979 L 1538.45 552.604 L 1535.94 551.298 L 1537.01 553.074 C 1531.37 553.643 1526.18 553.938 1520.78 555.779 L 1519.02 555.902 C 1521.78 553.69 1521.7 551.7 1523.04 548.402 z"/>
<path transform="translate(0,0)" fill="rgb(7,160,229)" fill-opacity="0.894118" d="M 1328.71 245.16 L 1342.63 234.438 C 1338.55 241.631 1334.45 249.056 1330.25 256.156 C 1330.36 250.023 1333.93 249.748 1328.71 245.16 z"/>
<path transform="translate(0,0)" fill="rgb(7,160,229)" fill-opacity="0.839216" d="M 704.762 234.045 C 710.418 237.817 715.842 241.333 721.186 245.558 L 715.682 244.246 L 714.917 245.207 C 715.635 247.528 716.462 249.695 716.62 252.104 C 712.379 247.348 708.086 239.657 704.762 234.045 z"/>
</svg>