<svg xmlns="http://www.w3.org/2000/svg" viewBox="0 0 1095 1095" width="1095" height="1095">
<path d="M539.68 157.29C544.57 156.36 549.86 156.58 554.7 157.66C594.86 166.69 595.09 225.84 554.48 233.91C548.87 235.03 543.23 235.08 537.67 233.73C497.59 224.01 499.19 165.02 539.68 157.29ZM552.39 245.21C552.39 317.77 552.39 390.33 552.39 462.88C549.02 462.88 545.65 462.88 542.28 462.88C542.28 390.33 542.28 317.77 542.28 245.21C545.65 245.21 549.02 245.21 552.39 245.21ZM541.79 474.45C582.69 469.9 619.48 506.27 619.1 546.5C618.85 572.52 604.21 596.48 581.55 609.04C572.06 614.3 561.28 617.07 550.49 617.65C541.7 618.13 532.82 616.87 524.54 613.92C479.4 597.85 460.34 542.66 489.94 503.41C494.8 496.97 500.45 491.19 507.17 486.65C517.57 479.61 529.38 475.83 541.79 474.45ZM894.59 506.39C899.92 505.9 905.31 506.3 910.35 508.18C947.53 522.02 942.62 578.45 902.5 582.96C896.9 583.59 891.3 583.17 885.88 581.56C847.83 570.26 852.23 510.3 894.59 506.39ZM195.74 507.46C236.15 505.17 250.81 561.44 214.91 580.42C209.25 583.41 202.53 584.47 196.18 584.5C174.43 584.59 157.34 563.62 159.32 542.54C161.1 523.63 176.79 508.53 195.74 507.46ZM464.28 541.11C464.28 544.24 464.28 547.37 464.28 550.5C457.27 552.78 448.01 551.38 440.5 551.39C424.83 551.43 409.17 551.49 393.5 551.41C344.38 551.16 295.12 552.68 246.02 551.3C246.02 547.9 246.02 544.51 246.02 541.11C318.77 541.11 391.52 541.11 464.28 541.11ZM848.96 541.11C848.96 544.55 848.96 547.98 848.96 551.42C776.13 551.42 703.31 551.42 630.48 551.42C630.48 547.98 630.48 544.55 630.48 541.11C703.31 541.11 776.13 541.11 848.96 541.11ZM552.38 629.29C552.38 696.8 552.38 764.31 552.38 831.82C549.1 831.82 545.81 831.82 542.52 831.82C541.4 816.84 542.33 801.52 542.28 786.5C542.2 756.17 542.13 725.83 542.29 695.5C542.37 680.83 542.24 666.17 542.28 651.5C542.3 644.37 541.21 636.16 543.05 629.29C546.16 629.29 549.27 629.29 552.38 629.29ZM542.59 842.37C548.18 841.81 554.07 842.22 559.38 844.16C596.9 857.85 590.23 913.8 550.5 918.12C545.33 918.68 540.14 917.98 535.22 916.35C497.8 903.97 502.86 846.36 542.59 842.37Z" fill="#e1430e" fill-rule="evenodd" stroke="#e1430e" stroke-width="0.25" stroke-linejoin="round"/>
<path d="M497.5 203.86C498.34 207.07 499.19 210.29 500.03 213.5C445.52 236.25 391.01 259 336.5 281.76C335.23 278.67 333.96 275.59 332.68 272.5C349.12 264.4 366.51 257.91 383.43 250.9C403.41 242.61 423.28 234.02 443.25 225.7C456.21 220.3 469.12 214.71 482.22 209.65C487.36 207.67 492.02 204.64 497.5 203.86ZM596.5 203.56C651.53 226.54 706.56 249.52 761.59 272.5C760.23 275.62 758.86 278.74 757.5 281.87C744.82 277.32 732.54 271.58 720.09 266.44C693.74 255.56 667.6 244.14 641.22 233.35C630.14 228.82 619.14 224.11 608.13 219.42C603.56 217.47 596.65 216.22 593.37 212.5C594.41 209.52 595.46 206.54 596.5 203.56ZM288.59 260.27C293.19 259.54 298 259.78 302.5 260.94C337.85 270.06 335.89 322.52 299.47 327.8C294.53 328.51 289.35 328.19 284.55 326.88C250.05 317.45 253.58 265.85 288.59 260.27ZM793.76 260.39C798.31 259.57 803.04 259.78 807.52 260.88C842.75 269.56 841.42 321.7 805.44 327.75C800.86 328.52 795.97 328.27 791.46 327.19C756.2 318.72 758.31 266.76 793.76 260.39ZM330.5 320.72C383.96 374.65 437.41 428.57 490.87 482.5C488.41 484.58 485.96 486.65 483.5 488.73C430.11 434.99 376.72 381.24 323.32 327.5C325.72 325.24 328.11 322.98 330.5 320.72ZM764.5 321.07C766.68 323.55 768.86 326.02 771.04 328.5C760.17 340.53 748.11 351.68 736.6 363.09C711 388.48 685.52 414.03 660.36 439.86C649.02 451.51 637.48 462.98 625.89 474.39C621.24 478.97 616.35 486.04 610.5 488.8C608.37 486.7 606.24 484.6 604.11 482.5C657.57 428.69 711.04 374.88 764.5 321.07ZM270.5 331.35C273.25 332.74 275.99 334.12 278.74 335.5C256.66 389.71 234.58 443.92 212.5 498.14C209.39 497.26 206.28 496.38 203.18 495.5C205.46 484.48 212.59 471.99 216.73 461.29C227.53 433.41 239.53 405.99 250.73 378.28C254.87 368.04 259.11 357.84 263.15 347.57C265.09 342.65 266.76 334.99 270.5 331.35ZM824.5 330.75C846.63 385.66 868.76 440.58 890.9 495.5C887.76 496.35 884.63 497.21 881.5 498.06C859.65 443.87 837.81 389.69 815.96 335.5C818.81 333.92 821.65 332.33 824.5 330.75ZM881.5 592.23C884.56 593.32 887.62 594.41 890.69 595.5C867.96 650.6 845.23 705.69 822.5 760.79C819.67 759.36 816.83 757.93 814 756.5C836.5 701.74 859 646.99 881.5 592.23ZM212.5 592.79C234.96 647.36 257.42 701.93 279.88 756.5C277.09 758.06 274.29 759.63 271.5 761.19C268.05 757.21 266.57 750.85 264.57 745.9C259.97 734.54 255.25 723.22 250.57 711.9C241.07 688.97 231.86 665.92 222.55 642.92C218.04 631.78 213.47 620.66 209.05 609.49C207.2 604.83 204.88 600.42 203.85 595.5C206.74 594.6 209.62 593.69 212.5 592.79ZM484.5 603.35C486.7 605.73 488.89 608.12 491.09 610.5C437.56 664.25 384.03 717.99 330.5 771.74C328.17 769.33 325.83 766.91 323.5 764.5C377.17 710.79 430.83 657.07 484.5 603.35ZM610.5 603.4C664.11 657.1 717.71 710.8 771.32 764.5C769.04 766.81 766.77 769.12 764.5 771.43C710.96 717.79 657.41 664.14 603.87 610.5C606.08 608.13 608.29 605.77 610.5 603.4ZM289.79 764.43C294.05 763.66 298.3 764.02 302.48 765.05C338.06 773.87 336.68 824.67 300.5 831.01C296 831.8 291.45 831.56 287.01 830.5C251.64 822.09 254.28 770.82 289.79 764.43ZM795.57 764.32C831.06 759.51 847.24 808 817.06 826.56C812.38 829.44 806.98 830.9 801.54 831.4C780.04 833.4 763.3 813.07 766.26 792.55C768.44 777.5 780.72 766.33 795.57 764.32ZM337.5 809.07C391.36 829.21 445.21 849.36 499.07 869.5C499.07 872.83 499.07 876.17 499.07 879.5C491.65 879.1 484.22 874.92 477.24 872.33C464.59 867.64 451.91 863.06 439.31 858.24C415.37 849.08 391.29 840.25 367.28 831.27C360.25 828.64 353.22 825.91 346.15 823.41C341.89 821.9 337.26 820.66 333.3 818.5C334.7 815.36 336.1 812.21 337.5 809.07ZM757.5 809.02C758.68 812.18 759.87 815.34 761.05 818.5C705.87 838.95 650.68 859.39 595.5 879.84C594.94 876.73 594.38 873.61 593.81 870.5C648.38 850.01 702.94 829.51 757.5 809.02Z" fill="#0bc9d6" fill-rule="evenodd" stroke="#0bc9d6" stroke-width="0.25" stroke-linejoin="round"/>
</svg>